<?xml version="1.0" encoding="utf-8"?>
<!-- Generator: Adobe Illustrator 19.0.0, SVG Export Plug-In . SVG Version: 6.00 Build 0)  -->
<svg version="1.1" id="图层_1" xmlns="http://www.w3.org/2000/svg" xmlns:xlink="http://www.w3.org/1999/xlink" x="0px" y="0px"
	 viewBox="-157 422.3 707.5 180.7" style="enable-background:new -157 422.3 707.5 180.7;" xml:space="preserve">
<style type="text/css">
	.st0{fill:#FFFFFF;fill-opacity:0;}
	.st1{fill:#FFFFFF;}
</style>
<g transform="translate(52.539337158203125,94.9999885559082)">
	<g transform="translate(0,0)">
		<rect x="-208.1" y="327.9" class="st0" width="180.7" height="180.7"/>
		<path class="st1" d="M-36.7,366.1c-0.1-0.1-79.4-37.8-79.4-37.8c-1-0.5-2.2-0.5-3.2,0c0,0-79.3,37.8-79.4,37.8
			c-1.1,0.7-1.8,1.9-1.8,3.2v90.4c0,1.3,0.7,2.6,1.9,3.3l79,45.2l0,0l0,0l0,0l0,0c0.6,0.3,1.2,0.5,1.9,0.5c0.6,0,1.3-0.2,1.9-0.5
			l79.1-45.2c1.2-0.7,1.9-1.9,1.9-3.3v-90.4C-34.9,368-35.6,366.8-36.7,366.1L-36.7,366.1z M-162.9,474.7l-30.1-17.2v-36.8
			l30.1,15.8V474.7L-162.9,474.7z M-188.4,369.5l32-15.3l29.8,14.2l-33.5,15.9C-160,384.4-188.4,369.5-188.4,369.5z M-121.5,449.7
			l-33.9-17.7v-36.7l33.9,17.7V449.7L-121.5,449.7z M-80.1,479l-33.9,19.4v-40.2l33.9-17.7V479z M-109,368.5l29.8-14.2l32,15.3
			l-28.4,14.9L-109,368.5z M-42.5,412.3l-30.1,15.8v-36.7l30.1-15.8V412.3z"/>
	</g>
	<g transform="translate(67,10.51650619506836)">
		<g transform="translate(0,0)">
			<g>
				<path class="st1" d="M-73.3,417.6L-73.3,417.6v-64.3l0,0c0-2.7,1.4-4.1,4.1-4.1l0,0h53.6l0,0c2.7,0,4.1,1.4,4.1,4.1l0,0v64.3
					l0,0c0,2.7-1.4,4.1-4.1,4.1l0,0h-53.6l0,0C-71.9,421.7-73.3,420.3-73.3,417.6z M-47,412.3L-47,412.3h9.4l0,0
					c2.7,0,4.1-1.4,4.1-4.2l0,0v-45.4l0,0c0-2.7-1.4-4.1-4.1-4.1l0,0H-47l0,0c-2.7,0-4.1,1.4-4.1,4.1l0,0v45.4l0,0
					C-51.1,410.9-49.8,412.3-47,412.3z M-0.4,349.4L-0.4,349.4h53.6l0,0c2.7,0,4.1,1.4,4.1,4.1l0,0v64.2l0,0c0,2.7-1.4,4.1-4.1,4.1
					l0,0H0.9l0,0c-2.8,0-4.1-1.2-4.1-3.7l0,0v-1.4l0,0c0-2.4,1.4-3.7,4.1-3.7l0,0H31l0,0c2.7,0,4.1-1.4,4.1-4.1l0,0v-17.2l0,0
					c0-2.8-1.4-4.2-4.1-4.2l0,0H-0.4l0,0c-2.8,0-4.1-1.4-4.1-4.1l0,0v-30l0,0C-4.6,350.8-3.2,349.4-0.4,349.4z M35.1,374.7
					L35.1,374.7v-12.4l0,0c0-2.8-1.4-4.2-4.1-4.2l0,0h-9.2l0,0c-2.7,0-4.1,1.4-4.1,4.2l0,0v12.4l0,0c0,2.8,1.4,4.1,4.1,4.1l0,0H31
					l0,0C33.7,378.9,35.1,377.5,35.1,374.7z M121,421.8L121,421.8H71.4l0,0c-2.7,0-4.1-1.4-4.1-4.1l0,0v-49l0,0
					c0-2.7,1.4-4.1,4.1-4.1l0,0h28.1l0,0c2.7,0,4.1-1.4,4.1-4.1l0,0v-7.2l0,0c0-2.8,1.4-4.1,4.1-4.1l0,0H121l0,0
					c2.7,0,4.1,1.4,4.1,4.1l0,0v64.4l0,0C125,420.5,123.7,421.8,121,421.8z M99.5,373.4L99.5,373.4h-6.6l0,0c-2.7,0-4.1,1.4-4.1,4.1
					l0,0v31.4l0,0c0,2.7,1.4,4.1,4.1,4.1l0,0h6.6l0,0c2.7,0,4.1-1.4,4.1-4.1l0,0v-31.4l0,0C103.5,374.8,102.2,373.4,99.5,373.4z
					 M158.7,402.9L158.7,402.9v6.1l0,0c0,2.7,1.4,4.1,4.1,4.1l0,0h27.9l0,0c2.8,0,4.1,1.2,4.1,3.7l0,0v1.3l0,0
					c0,2.5-1.4,3.7-4.1,3.7l0,0h-49.5l0,0c-2.7,0-4.1-1.4-4.1-4.1l0,0v-48.9l0,0c0-2.7,1.4-4.1,4.1-4.1l0,0l49.2,0.1l0,0
					c1.6,0,2.7,0.3,3.3,0.9l0,0l0,0c0.6,0.7,1,1.8,1,3.2l0,0v25.8l0,0c0,2.8-1.4,4.1-4.1,4.1l0,0h-27.9l0,0
					C160,398.8,158.7,400.2,158.7,402.9z M162.8,390.8L162.8,390.8h7.1l0,0c2.7,0,4.1-1.4,4.1-4.2l0,0v-9.7l0,0
					c0-2.8-1.4-4.1-4.1-4.1l0,0h-7.1l0,0c-2.7,0-4.1,1.4-4.1,4.1l0,0v9.7l0,0C158.7,389.4,160,390.8,162.8,390.8z M237.4,395
					L237.4,395h-28.1l0,0c-2.7,0-4.1-1.4-4.1-4.1l0,0v-22l0,0c0-2.8,1.4-4.2,4.1-4.2l0,0h49.5l0,0c2.7,0,4.1,1.2,4.1,3.6l0,0v0.9
					l0,0c0,2.4-1.4,3.6-4.1,3.6l0,0h-28l0,0c-2.7,0-4.1,1.4-4.1,4.1l0,0v6l0,0c0,2.7,1.4,4.1,4.1,4.1l0,0h28.1l0,0
					c2.7,0,4.1,1.4,4.1,4.1l0,0v26.6l0,0c0,2.8-1.4,4.1-4.1,4.1l0,0h-49.6l0,0c-2.7,0-4.1-1.2-4.1-3.6l0,0v-0.9l0,0
					c0-2.4,1.4-3.6,4.1-3.6l0,0h28.1l0,0c2.7,0,4.1-1.4,4.1-4.1l0,0v-10.5l0,0C241.5,396.4,240.1,395,237.4,395z M275.4,364.7
					L275.4,364.7h14l0,0c2.7,0,4.1,1.4,4.1,4.1l0,0v48.9l0,0c0,2.7-1.4,4.1-4.1,4.1l0,0h-14l0,0c-2.8,0-4.2-1.4-4.2-4.1l0,0v-48.9
					l0,0C271.2,366.1,272.6,364.7,275.4,364.7z M275.3,349.1L275.3,349.1h14l0,0c2.8,0,4.1,1.4,4.1,4.1l0,0v4.1l0,0
					c0,2.8-1.4,4.1-4.1,4.1l0,0h-14l0,0c-2.7,0-4.1-1.4-4.1-4.1l0,0v-4.1l0,0C271.2,350.5,272.6,349.1,275.3,349.1z M336.8,398.8
					L336.8,398.8h-27.9l0,0c-2.7,0-4.1-1.4-4.1-4.1l0,0v-25.9l0,0c0-2.7,1.4-4.1,4.1-4.1l0,0h49.4l0,0c2.7,0,4.1,1.4,4.1,4.1l0,0
					V424l0,0c0,2.7-1.4,4.1-4.1,4.1l0,0h-49.4l0,0c-2.7,0-4.1-1.4-4.1-4.1l0,0v-5.6l0,0c0-2.8,1.4-4.1,4.1-4.1l0,0h10.9l0,0
					c2.1,0,3.3,1,3.5,2.9l0,0l0,0c0.2,1.9,1.4,2.8,3.5,2.8l0,0h9.9l0,0c2.7,0,4.1-1.4,4.1-4.1l0,0v-13l0,0
					C340.9,400.2,339.5,398.8,336.8,398.8z M340.9,386.7L340.9,386.7v-9.8l0,0c0-2.7-1.4-4.1-4.1-4.1l0,0h-7l0,0
					c-2.7,0-4.1,1.4-4.1,4.1l0,0v9.8l0,0c0,2.7,1.4,4.1,4.1,4.1l0,0h7l0,0C339.5,390.8,340.9,389.4,340.9,386.7z M396.4,368.6v1.2
					l1.3-2l0,0c0.8-1.3,1.5-2.1,2.3-2.5l0,0l0,0c0.7-0.4,1.8-0.6,3.3-0.6l0,0h25.1l0,0c2.7,0,4.1,1.4,4.1,4.1l0,0v48.9l0,0
					c0,2.7-1.4,4.1-4.1,4.1l0,0h-13.3l0,0c-2.7,0-4.1-1.4-4.1-4.1l0,0v-40.2l0,0c0-2.7-1.4-4.1-4.1-4.1l0,0h-6.4l0,0
					c-2.7,0-4.1,1.4-4.1,4.1l0,0v40.2l0,0c0,2.7-1.4,4.1-4.1,4.1l0,0H379l0,0c-2.7,0-4.1-1.4-4.1-4.1l0,0v-48.9l0,0
					c0-2.7,1.4-4.1,4.1-4.1l0,0h13.3l0,0C395,364.7,396.4,366,396.4,368.6L396.4,368.6z"/>
			</g>
		</g>
		<g transform="translate(0,30.01738739013672)">
			<rect x="-73.3" y="421.5" class="st1" width="156.7" height="3"/>
			<rect x="275.7" y="421.5" class="st1" width="156.7" height="3"/>
			<g transform="translate(55.03500556945801,0)">
				<path class="st1" d="M51.5,423.7L51.5,423.7L51.5,423.7c0-6.8-1.8-10.1-5.4-10.1l0,0l0,0c-3.5,0-5.2,3.4-5.2,10.1l0,0l0,0
					c0,6.8,1.7,10.2,5.2,10.2l0,0l0,0C49.7,433.8,51.5,430.4,51.5,423.7z M54.9,423.7L54.9,423.7L54.9,423.7
					c-0.2,8.4-3.1,12.6-8.7,12.7l0,0l0,0c-5.6-0.1-8.6-4.3-8.8-12.7l0,0l0,0c0.2-8.7,3.1-13,8.8-13.1l0,0l0,0
					C51.7,410.8,54.6,415.2,54.9,423.7z M58,429.9L58,429.9h3.1l0,0c0.4,2.7,1.8,4.1,4.4,4.1l0,0l0,0c3.3,0.1,5.3-3.1,6.1-9.5l0,0
					h-0.2l0,0c-1,1.9-3,2.9-5.8,3l0,0l0,0c-5.1-0.3-7.7-3-7.9-8.2l0,0l0,0c0.3-5.6,3-8.6,8.2-8.8l0,0l0,0c5.7,0.1,8.7,4,8.9,11.7
					l0,0l0,0c-0.4,9.2-3.5,13.9-9.3,14.1l0,0l0,0C60.9,436.4,58.4,434.2,58,429.9z M66.2,424.7L66.2,424.7L66.2,424.7
					c3.1-0.2,4.7-2.1,4.8-5.8l0,0l0,0c-0.1-3.5-1.8-5.3-5.1-5.4l0,0l0,0c-3.1,0.2-4.8,2.1-4.9,5.6l0,0l0,0
					C61,423,62.7,424.8,66.2,424.7z M89.5,436H79v-25.8h10.6l0,0c6.9,0.4,10.6,4.6,10.9,12.6l0,0l0,0
					C100.1,431.4,96.5,435.9,89.5,436L89.5,436z M89.1,413h-6.5v20.1h6.8l0,0c4.9-0.3,7.4-3.6,7.6-10l0,0l0,0
					C96.9,416.5,94.3,413.2,89.1,413L89.1,413z M108.8,432.9h15.5v3.1h-19.1v-25.8H124v3h-15.2v8h14.1v3.1h-14.1V432.9z
					 M147.8,417.7L147.8,417.7h-3.3l0,0c-0.2-3.3-2.3-5-6.5-5.2l0,0l0,0c-3.9,0.1-5.8,1.6-5.8,4.5l0,0l0,0c0,1.9,1,3,3.1,3.3l0,0
					l7.3,1.7l0,0c3.9,0.9,5.8,3.3,5.8,7.1l0,0l0,0c-0.1,4.8-3.5,7.3-10.1,7.5l0,0l0,0c-3.7,0-6.3-0.8-7.8-2.3l0,0l0,0
					c-1.9-1.4-2.8-3.6-2.7-6.5l0,0h3.4l0,0c0.1,4,2.5,6,7.1,6.1l0,0l0,0c4.5-0.1,6.8-1.6,6.9-4.4l0,0l0,0c0.4-2.4-1.5-3.9-5.6-4.7
					l0,0l-5.4-1.1l0,0c-3.7-1-5.5-3.1-5.5-6.2l0,0l0,0c0.3-5.1,3.3-7.7,9-7.9l0,0l0,0C144.3,409.5,147.6,412.2,147.8,417.7z
					 M153.4,410.2h3.6V436h-3.6V410.2z M182.3,425.2h-7.9v-3h11.3V436h-2.3l-0.8-3.3l0,0c-2,2.3-4.8,3.6-8.5,3.7l0,0l0,0
					c-3.5,0-6.2-0.9-8-2.7l0,0l0,0c-2.8-2.6-4.2-6.3-4.1-10.9l0,0l0,0c0.6-8.6,4.7-13,12.3-13.4l0,0l0,0c6.4,0.4,10.1,3.2,11,8.5
					l0,0h-3.4l0,0c-0.9-3.6-3.5-5.4-7.8-5.5l0,0l0,0c-5.4,0.4-8.2,3.9-8.5,10.6l0,0l0,0c0,7.1,2.9,10.7,8.6,10.7l0,0l0,0
					c2.1,0,3.9-0.6,5.4-1.7l0,0l0,0C181.4,430.6,182.3,428.3,182.3,425.2L182.3,425.2z M195.2,410.2l13,20.9v-20.9h3.4V436h-4
					l-13.1-20.9h-0.1V436H191v-25.8H195.2z"/>
			</g>
		</g>
	</g>
</g>
</svg>
